HIERARCHY
ROOT Hips
{
	OFFSET 0.00000 0.00000 0.00000
	CHANNELS 6 Xposition Yposition Zposition Zrotation Yrotation Xrotation 
	JOINT LHipJoint
	{
		OFFSET 0 0 0
		CHANNELS 3 Zrotation Yrotation Xrotation
		JOINT LeftUpLeg
		{
			OFFSET 1.48831 -1.59570 0.95625
			CHANNELS 3 Zrotation Yrotation Xrotation
			JOINT LeftLeg
			{
				OFFSET 2.20856 -6.06797 0.00000
				CHANNELS 3 Zrotation Yrotation Xrotation
				JOINT LeftFoot
				{
					OFFSET 2.62924 -7.22379 0.00000
					CHANNELS 3 Zrotation Yrotation Xrotation
					JOINT LeftToeBase
					{
						OFFSET 0.16802 -0.46163 2.41673
						CHANNELS 3 Zrotation Yrotation Xrotation
						End Site
						{
							OFFSET 0.00000 -0.00000 1.23760
						}
					}
				}
			}
		}
	}
	JOINT RHipJoint
	{
		OFFSET 0 0 0
		CHANNELS 3 Zrotation Yrotation Xrotation
		JOINT RightUpLeg
		{
			OFFSET -1.56796 -1.59570 0.95625
			CHANNELS 3 Zrotation Yrotation Xrotation
			JOINT RightLeg
			{
				OFFSET -2.29239 -6.29829 0.00000
				CHANNELS 3 Zrotation Yrotation Xrotation
				JOINT RightFoot
				{
					OFFSET -2.66963 -7.33475 0.00000
					CHANNELS 3 Zrotation Yrotation Xrotation
					JOINT RightToeBase
					{
						OFFSET -0.18185 -0.49964 2.34359
						CHANNELS 3 Zrotation Yrotation Xrotation
						End Site
						{
							OFFSET -0.00000 -0.00000 1.20477
						}
					}
				}
			}
		}
	}
	JOINT LowerBack
	{
		OFFSET 0 0 0
		CHANNELS 3 Zrotation Yrotation Xrotation
		JOINT Spine
		{
			OFFSET 0.03505 2.15832 -0.34324
			CHANNELS 3 Zrotation Yrotation Xrotation
			JOINT Spine1
			{
				OFFSET -0.01089 2.17963 0.04689
				CHANNELS 3 Zrotation Yrotation Xrotation
				JOINT Neck
				{
					OFFSET 0 0 0
					CHANNELS 3 Zrotation Yrotation Xrotation
					JOINT Neck1
					{
						OFFSET 0.04686 1.69404 0.22159
						CHANNELS 3 Zrotation Yrotation Xrotation
						JOINT Head
						{
							OFFSET 0.00265 1.69305 -0.01513
							CHANNELS 3 Zrotation Yrotation Xrotation
							End Site
							{
								OFFSET -0.00415 1.80215 -0.03034
							}
						}
					}
				}
				JOINT LeftShoulder
				{
					OFFSET 0 0 0
					CHANNELS 3 Zrotation Yrotation Xrotation
					JOINT LeftArm
					{
						OFFSET 3.67184 1.11724 -0.19002
						CHANNELS 3 Zrotation Yrotation Xrotation
						JOINT LeftForeArm
						{
							OFFSET 5.17714 -0.00000 -0.00000
							CHANNELS 3 Zrotation Yrotation Xrotation
							JOINT LeftHand
							{
								OFFSET 3.43679 -0.00000 -0.00000
								CHANNELS 3 Zrotation Yrotation Xrotation
								JOINT LeftFingerBase
								{
									OFFSET 0 0 0
									CHANNELS 3 Zrotation Yrotation Xrotation
									JOINT LeftHandIndex1
									{
										OFFSET 0.57312 -0.00000 -0.00000
										CHANNELS 3 Zrotation Yrotation Xrotation
										End Site
										{
											OFFSET 0.46206 -0.00000 -0.00000
										}
									}
								}
								JOINT LThumb
								{
									OFFSET 0 0 0
									CHANNELS 3 Zrotation Yrotation Xrotation
									End Site
									{
										OFFSET 0.46912 -0.00000 0.46912
									}
								}
							}
						}
					}
				}
				JOINT RightShoulder
				{
					OFFSET 0 0 0
					CHANNELS 3 Zrotation Yrotation Xrotation
					JOINT RightArm
					{
						OFFSET -3.59596 0.95831 -0.26050
						CHANNELS 3 Zrotation Yrotation Xrotation
						JOINT RightForeArm
						{
							OFFSET -5.23908 -0.00000 -0.00000
							CHANNELS 3 Zrotation Yrotation Xrotation
							JOINT RightHand
							{
								OFFSET -3.46485 -0.00000 -0.00000
								CHANNELS 3 Zrotation Yrotation Xrotation
								JOINT RightFingerBase
								{
									OFFSET 0 0 0
									CHANNELS 3 Zrotation Yrotation Xrotation
									JOINT RightHandIndex1
									{
										OFFSET -0.60875 -0.00000 -0.00000
										CHANNELS 3 Zrotation Yrotation Xrotation
										End Site
										{
											OFFSET -0.49079 -0.00000 -0.00000
										}
									}
								}
								JOINT RThumb
								{
									OFFSET 0 0 0
									CHANNELS 3 Zrotation Yrotation Xrotation
									End Site
									{
										OFFSET -0.49829 -0.00000 0.49829
									}
								}
							}
						}
					}
				}
			}
		}
	}
}
MOTION
Frames: 10
Frame Time: 0.0384615
0.00 0.00 0.00 0 0 0 0 0 0 -21 0 0 0 0 0 0 0 0 0 0 0 0 0 0 21 0 0 0 0 0 0 0 0 0 0 0 0 0 0 0 0 0 0 0 0 0 0 -16 0 0 21 0 0 11 0 0 0 -8 0 0 0 0 0 0 0 0 0 0 0 0 0 0 0 0 0 0 0 0 8 0 0 0 0 0 0 0 0 0 0 0 0 0 0 0 0 0
0.00 0.00 0.00 -181.1070 -46.1744 181.2370 0.0000 0.0000 0.0000 -23.6745 17.5819 -10.8801 2.0711 9.0126 25.8349 1.6492 -5.8346 -23.0955 0.0041 -0.4128 -1.1342 0.0000 0.0000 0.0000 17.4290 13.8987 -16.8882 -6.9662 -15.3033 48.7463 -1.7958 -1.1821 -25.7889 -0.3361 3.7255 -10.3056 -0.9596 -1.8563 -0.2147 0.7264 -2.4821 0.9542 1.2488 -1.2564 1.1701 3.1222 1.6706 -1.6771 -1.1122 2.1691 0.5448 -0.8357 1.0832 0.4911 0.0000 -0.0000 0.0000 -91.7284 1.6498 7.0037 10.8710 -18.0902 -1.7356 -0.0000 0.0000 -13.6495 15.9494 7.0194 2.0002 -7.1250 0.0000 -0.0000 -9.1849 37.1370 1.7954 0.0000 -0.0000 0.0000 87.3601 -2.3974 19.9151 -17.8503 27.9650 -4.4788 0.0000 -0.0000 -1.8254 -19.9687 -4.2230 1.5327 7.1250 -0.0000 -0.0000 5.5047 -34.4315 1.4334
0.00 0.00 0.00 -183.5900 -43.3295 182.3760 0.0000 0.0000 0.0000 -26.0333 27.5083 -11.9496 1.6701 8.1422 23.1469 1.1617 -13.2743 -20.0797 0.0089 0.6081 1.6709 0.0000 0.0000 0.0000 14.1054 16.2069 -28.4714 -12.1612 -18.4580 66.4989 -0.4567 -8.7732 -18.8505 -0.0031 0.3608 -0.9912 -1.8283 -2.4739 1.4279 -0.3156 -3.3316 0.9158 0.7368 -1.6784 0.2239 3.7369 2.8608 -0.9159 -1.8926 3.7788 0.0362 -1.1802 1.8848 0.2737 0.0000 -0.0000 0.0000 -89.0991 -2.8360 3.0525 9.3047 -15.6446 -1.2810 -0.0000 0.0000 -9.3722 16.1657 8.8555 2.5551 -7.1250 0.0000 -0.0000 -9.3048 39.0325 1.3821 0.0000 -0.0000 0.0000 87.9028 -3.8678 21.4212 -17.4880 27.4966 -4.3102 0.0000 -0.0000 -1.8489 -20.6163 -4.5217 1.6988 7.1250 -0.0000 -0.0000 4.9990 -34.7753 1.2589
0.00 0.00 0.00 -177.0440 -43.7982 178.3540 0.0000 0.0000 0.0000 -22.1434 23.5912 2.5126 0.2628 3.2981 9.1097 1.3587 -3.0948 -21.2389 0.0489 -1.4273 -3.9255 0.0000 0.0000 0.0000 26.6573 15.9223 -37.8026 -7.4374 -15.6895 50.5100 -0.6488 -8.1845 -20.3290 -0.0782 1.8041 -4.9644 0.8574 -5.3155 1.4368 3.1628 -7.1276 -0.0919 2.8884 -3.5968 -0.5957 6.3288 5.8429 -0.5205 -7.8955 7.7699 -0.0159 -3.5691 3.8539 0.6979 -0.0000 -0.0000 0.0000 -88.6849 -4.9779 17.2054 16.4016 -26.0621 -3.8207 -0.0000 0.0000 -17.7016 14.3109 11.2346 2.8453 -7.1250 0.0000 -0.0000 -11.3772 41.2940 1.0552 -0.0000 -0.0000 0.0000 84.6556 -9.0760 8.6944 -10.9709 18.2437 -1.7668 0.0000 0.0000 7.7484 -18.3642 -5.2799 1.7497 7.1250 -0.0000 -0.0000 6.9375 -35.4710 1.6341
0.00 0.00 0.00 -176.9120 -44.5576 178.6690 0.0000 0.0000 0.0000 -17.8100 24.2294 23.6389 0.0000 -0.0000 -0.0000 -0.0099 5.0874 -6.9268 2.9246 -10.5719 -30.8494 0.0000 0.0000 0.0000 28.6307 19.3877 -22.7086 -3.7602 -11.8342 35.1480 -0.1784 -10.1950 -17.0672 -0.0342 -1.1939 3.2826 1.5433 -7.0794 -4.6473 5.3734 -9.8279 -1.6184 4.0511 -5.0145 1.6019 8.2279 7.2427 -0.2313 -10.4136 9.6084 -0.8331 -4.2989 4.7559 0.7073 0.0000 -0.0000 0.0000 -98.5413 0.0862 10.7547 9.9785 -16.7060 -1.4688 -0.0000 0.0000 -7.7824 8.8307 12.8633 1.9809 -7.1250 0.0000 -0.0000 -16.5614 42.3790 1.1041 0.0000 -0.0000 0.0000 83.5795 -13.5854 -3.2421 -11.4754 19.0132 -1.9279 0.0000 0.0000 3.8485 -18.1442 -6.4541 2.1096 7.1250 -0.0000 -0.0000 7.2653 -36.6841 1.4957
0.00 0.00 0.00 -173.6230 -46.3402 174.6780 0.0000 0.0000 0.0000 -13.8887 20.0532 20.5850 0.7941 5.6883 15.8826 -0.2638 9.9051 0.6402 2.1908 -9.2526 -26.5887 0.0000 0.0000 0.0000 33.2423 13.6406 -14.6540 -3.1968 -11.0070 32.3035 -0.6276 -7.8067 -19.7921 -0.1296 -2.3204 6.3919 2.1142 -6.5824 -5.7898 5.9190 -9.3193 -1.7005 4.1996 -4.7819 2.1220 7.2676 5.8495 -1.3375 -8.2063 7.7378 0.2096 -3.8259 3.8167 0.9721 -0.0000 0.0000 0.0000 -98.4613 5.2534 12.4898 10.5398 -17.5795 -1.6342 -0.0000 0.0000 -10.4284 11.2294 11.3912 2.2456 -7.1250 0.0000 -0.0000 -14.0852 41.1699 1.3609 -0.0000 0.0000 0.0000 83.3985 -13.3687 0.3600 -11.5323 19.0996 -1.9465 0.0000 0.0000 3.3169 -18.3906 -6.2161 2.0618 7.1250 -0.0000 -0.0000 7.0286 -36.4499 1.4869
0.00 0.00 0.00 -171.9580 -47.8067 172.8560 0.0000 0.0000 0.0000 -11.5100 17.2112 12.4010 3.3377 11.2226 33.0344 -0.0909 9.4057 4.8242 1.2541 -7.0995 -20.0105 0.0000 0.0000 0.0000 34.8874 10.5008 -12.0678 -2.9227 -10.5689 30.8394 -0.8477 -6.7465 -21.1074 -0.1350 -2.3682 6.5244 2.1617 -6.1696 -5.3367 5.9542 -8.7454 -1.7130 4.3158 -4.4968 1.8196 6.6098 4.8890 -1.8641 -7.1211 6.4202 0.1137 -3.3511 3.1592 0.8504 0.0000 -0.0000 0.0000 -97.0277 6.4337 15.1062 11.1812 -18.5655 -1.8332 -0.0000 0.0000 -11.5210 12.0448 11.3305 2.4005 -7.1250 0.0000 -0.0000 -13.3658 41.1835 1.2838 0.0000 -0.0000 0.0000 84.0139 -12.4679 1.3594 -11.2311 18.6416 -1.8491 0.0000 0.0000 3.6843 -18.3423 -6.1227 2.0252 7.1250 -0.0000 -0.0000 7.0572 -36.3497 1.5104
0.00 0.00 0.00 -165.8180 -49.0064 167.1720 0.0000 0.0000 0.0000 -6.6063 11.3005 4.6139 7.4180 15.6740 50.4379 0.1025 7.8337 7.4509 0.7103 -5.3863 -15.0137 0.0000 0.0000 0.0000 39.3170 6.1512 -8.4658 -2.2833 -9.4327 27.1585 -0.9034 -6.1692 -21.2121 -0.1015 -2.0542 5.6554 5.7606 -5.4894 -3.8532 6.5036 -7.9951 -1.4354 3.1511 -4.1581 0.8332 5.8417 3.7686 -2.2756 -6.1913 4.8795 -0.5445 -2.9250 2.3886 0.5442 -0.0000 0.0000 0.0000 -95.3077 6.7807 17.3440 12.0308 -19.8508 -2.1127 -0.0000 0.0000 -12.7841 13.6115 10.4467 2.5139 -7.1250 0.0000 -0.0000 -11.8093 40.4403 1.3491 -0.0000 0.0000 0.0000 84.4886 -10.7412 3.2445 -10.5483 17.5926 -1.6368 0.0000 0.0000 4.8282 -18.1519 -5.9161 1.9354 7.1250 -0.0000 -0.0000 7.1903 -36.1238 1.5791
0.00 0.00 0.00 -159.2160 -50.2416 160.7170 0.0000 0.0000 0.0000 -2.4068 0.6108 -6.2416 13.2173 18.8592 69.7992 -0.0160 3.3025 1.3804 0.8899 -6.0131 -16.8224 0.0000 0.0000 0.0000 43.6656 1.0691 -3.6599 -1.4732 -7.6698 21.7156 -0.8918 -6.0851 -21.0467 -0.0796 -1.8197 5.0078 9.3009 -4.5139 -1.6363 6.8040 -6.6365 -0.8298 1.7996 -3.5242 -0.1507 4.5539 2.1793 -2.2441 -4.5844 2.7089 -2.4967 -2.2021 1.3049 -0.2640 0.0000 -0.0000 0.0000 -93.4196 5.7975 16.7581 13.0187 -21.3146 -2.4601 -0.0000 0.0000 -14.5065 17.3349 8.8054 2.7356 -7.1250 0.0000 -0.0000 -8.2961 39.0692 1.2221 0.0000 -0.0000 0.0000 84.9349 -6.2573 4.1887 -8.8025 14.8451 -1.1490 0.0000 0.0000 11.2276 -17.8491 -4.7478 1.5267 7.1250 -0.0000 -0.0000 7.3010 -34.8920 1.8244
0.00 0.00 0.00 -158.4490 -50.3497 160.0580 0.0000 0.0000 0.0000 -2.7132 -18.0875 -30.1645 12.4790 18.5859 67.4992 0.3858 3.2270 -13.3666 0.6955 -5.3311 -14.8554 0.0000 0.0000 0.0000 43.6723 -8.8499 10.2488 -0.0946 -1.9833 5.4596 -0.7010 -3.1686 -17.2765 -0.0955 -1.9928 5.4858 12.0390 -0.1930 0.1164 4.1331 -0.5148 0.2185 -2.4263 -0.3511 0.1194 0.8163 -1.0471 -2.7753 1.2499 -1.4755 -4.7354 0.2487 -0.8062 -0.9827 -0.0000 -0.0000 0.0000 -89.5984 5.0658 13.1946 14.4941 -23.4367 -3.0219 -0.0000 0.0000 -20.7278 18.8296 7.8596 2.6698 -7.1250 0.0000 -0.0000 -6.8759 38.1945 1.1588 -0.0000 -0.0000 0.0000 83.8209 2.4716 25.0956 -13.5302 22.0592 -2.6491 0.0000 0.0000 3.8265 -15.2119 -4.8032 1.3043 7.1250 -0.0000 -0.0000 9.4719 -34.8307 2.3923
